<svg xmlns="http://www.w3.org/2000/svg" id="Layer_1" enable-background="new 0 0 135 135" viewBox="0 0 135 135"><rect width="128" height="3.16" x="3.5" y="128.34" fill="#7a8490"/><rect width="74.897" height="51.062" x="39.228" y="77.273" fill="#f2dcb6"/><rect width="74.897" height="1.162" x="39.228" y="122.036" opacity=".08"/><rect width="76.374" height="2.482" x="39.228" y="119.555" fill="#fff5e3"/><rect width="74.897" height="12.557" x="39.228" y="77.273" opacity=".08"/><polygon fill="#9e5c30" points="39.225 71.695 39.225 87.414 119.796 87.414 114.129 71.695"/><path fill="#44433f" d="M67.3394318,91.5446625h-0.0000153c-4.8526649,0-8.7865334,3.9338303-8.7865334,8.7865143v15.644928
						h17.5730858v-15.644928C76.1259689,95.4784927,72.1920929,91.5446625,67.3394318,91.5446625z"/><path fill="#807f84" d="M77.2151794,116.7380066H58.1182518v-16.4068069c0-5.2650604,4.283371-9.5485077,9.5484276-9.5485077
								h0.0000763c5.2650528,0,9.5484238,4.2834473,9.5484238,9.5485077V116.7380066z M59.6421547,115.2141037h16.0491219
								v-14.8829041c0-4.4248276-3.5997696-8.0246048-8.0245209-8.0246048s-8.024601,3.5997772-8.024601,8.0246048V115.2141037z"/><path fill="#44433f" d="M94.07444,91.5446625h-0.0000153c-4.8526688,0-8.7865372,3.9338303-8.7865372,8.7865143v15.644928
						h17.573082v-15.644928C102.8609695,95.4784927,98.9271011,91.5446625,94.07444,91.5446625z"/><path fill="#807f84" d="M103.9501877,116.7380066H84.8532562v-16.4068069c0-5.2650604,4.283371-9.5485077,9.5484314-9.5485077
								h0.0000763c5.2650528,0,9.5484238,4.2834473,9.5484238,9.5485077V116.7380066z M86.3771591,115.2141037h16.0491257
								v-14.8829041c0-4.4248276-3.5997772-8.0246048-8.0245209-8.0246048c-4.4247513,0-8.0246048,3.5997772-8.0246048,8.0246048
								V115.2141037z"/><polygon points="56.083 128.335 39.228 128.335 39.228 71.695 50.072 71.695 50.072 107.679" opacity=".08"/><g><rect width="25.631" height="61.147" x="21.139" y="46.53" fill="#f2dcb6"/><rect width="2.31" height="15.203" x="21.143" y="28.521" fill="#9e5c30"/><rect width="2.31" height="15.203" x="44.46" y="28.521" fill="#9e5c30"/><rect width="2.31" height="15.203" x="32.8" y="28.521" fill="#9e5c30"/><polygon fill="#9e5c30" points="48.635 25.707 33.955 6.691 19.275 25.707"/><path fill="#9e5c30" d="M37.4764442,7.0148797c0,1.95015-1.5774651,3.527616-3.5276146,3.527616
					c-1.9377174,0-3.5151825-1.577466-3.5151825-3.527616C30.4336472,5.0774655,32.0111122,3.5,33.9488297,3.5
					C35.8989792,3.5,37.4764442,5.0774655,37.4764442,7.0148797z"/><rect width="32.239" height="2.81" x="17.835" y="25.707" fill="#af6c3f"/><rect width="9.37" height="1.372" x="29.27" y="9.404" fill="#af6c3f"/><polygon fill="#f2dcb6" points="21.139 107.677 15.135 128.34 52.775 128.34 46.771 107.677"/><polygon fill="#9e5c30" points="16.515 123.591 15.135 128.34 52.775 128.34 51.395 123.591"/><path fill="#9e5c30" d="M46.7706451,108.8957062H21.1394596c-0.6733303,0-1.2191238-0.5458603-1.2191238-1.2191162
						s0.5457935-1.2191238,1.2191238-1.2191238h25.6311855c0.6733284,0,1.2191238,0.5458679,1.2191238,1.2191238
						S47.4439735,108.8957062,46.7706451,108.8957062z"/><path fill="#44433f" d="M33.6277657,114.163414H33.627758c-3.0538387,0-5.5294704,2.4756088-5.5294704,5.5294571v8.6467743
					h11.0589466v-8.6467743C39.1572342,116.6390228,36.6816063,114.163414,33.6277657,114.163414z"/><rect width="29.359" height="2.81" x="19.275" y="43.72" fill="#9e5c30"/><polygon fill="#44433f" points="48.631 37.626 48.631 43.724 47.774 43.724 47.774 38.582 45.786 38.582 45.786 43.724 44.929 43.724 44.929 38.582 42.93 38.582 42.93 43.724 42.072 43.724 42.072 38.582 40.085 38.582 40.085 43.724 39.228 43.724 39.228 38.582 37.241 38.582 37.241 43.724 36.371 43.724 36.371 38.582 34.384 38.582 34.384 43.724 33.527 43.724 33.527 38.582 31.54 38.582 31.54 43.724 30.67 43.724 30.67 38.582 28.683 38.582 28.683 43.724 27.826 43.724 27.826 38.582 25.839 38.582 25.839 43.724 24.969 43.724 24.969 38.582 22.982 38.582 22.982 43.724 22.125 43.724 22.125 38.582 20.137 38.582 20.137 43.724 19.28 43.724 19.28 37.626"/></g><g opacity=".08"><path d="M28.5181293 52.2598343v5.9131355h-5.4850292v-5.9131355c0-1.5146484 1.2278652-2.7425117 2.7425117-2.7425117h.0000057C27.290266 49.5173225 28.5181293 50.7451859 28.5181293 52.2598343zM36.6974487 52.2598343v5.9131355h-5.4850311v-5.9131355c0-1.5146484 1.2278633-2.7425117 2.7425117-2.7425117h.0000076C35.4695816 49.5173225 36.6974487 50.7451859 36.6974487 52.2598343zM44.8767624 52.2598343v5.9131355h-5.4850273v-5.9131355c0-1.5146484 1.2278633-2.7425117 2.7425117-2.7425117h.0000038C43.6488991 49.5173225 44.8767624 50.7451859 44.8767624 52.2598343z"/></g></svg>