<svg xmlns="http://www.w3.org/2000/svg" viewBox="0 0 64 64"><path fill="gray" d="M4.42,3H59.58A1.42,1.42,0,0,1,61,4.42V40a0,0,0,0,1,0,0H3a0,0,0,0,1,0,0V4.42A1.42,1.42,0,0,1,4.42,3Z"/><rect width="50" height="29" x="7" y="7" fill="#3fa9f5"/><path fill="#bdccd4" d="M3,40H61a0,0,0,0,1,0,0v6.58A1.42,1.42,0,0,1,59.58,48H4.42A1.42,1.42,0,0,1,3,46.58V40A0,0,0,0,1,3,40Z"/><rect width="8" height="8" x="28" y="48" fill="gray"/><path fill="#bdccd4" d="M52.42,61H11.58a.76.76,0,0,1-.6-1.23L14,56H50l3,3.77A.76.76,0,0,1,52.42,61Z"/><polygon fill="#0071bc" points="57 7 57 36 18.25 36 47.25 7 57 7"/><rect width="4" height="4" x="30" y="29" fill="#ff1d25" rx="2" ry="2"/><path fill="#ff1d25" d="M31.37,11h1.25A1.38,1.38,0,0,1,34,12.38V24.63A1.38,1.38,0,0,1,32.63,26H31.38A1.38,1.38,0,0,1,30,24.63V12.37A1.37,1.37,0,0,1,31.37,11Z"/></svg>