<svg width="50" height="50" viewBox="0 0 50 50" fill="none" xmlns="http://www.w3.org/2000/svg">
<path d="M49.9968 49.1821C49.9968 49.6336 49.6223 49.9993 49.1594 49.9993H2.54647C2.08361 49.9993 1.70898 49.6336 1.70898 49.1821V21.0481C1.70898 20.5963 2.08361 20.2363 2.54647 20.2363H49.1594C49.6223 20.2363 49.9968 20.5963 49.9968 21.0481V49.1821Z" fill="url(#paint0_linear)"/>
<path d="M2.61589 20.4414H49.0893C49.4749 20.4414 49.7871 20.9148 49.7871 21.2913V48.939C49.7871 49.3152 49.4749 49.7958 49.0893 49.7958H2.61589C2.23012 49.7958 1.91797 49.317 1.91797 48.9408V21.2931C1.91797 20.9166 2.23012 20.4414 2.61589 20.4414Z" fill="url(#paint1_linear)"/>
<path d="M2.68136 20.6445H49.0152C49.3237 20.6445 49.5734 21.2313 49.5734 21.5325V48.6938C49.5734 48.9948 49.3237 49.5902 49.0152 49.5902H2.68136C2.37278 49.5902 2.12305 48.9984 2.12305 48.6974V21.5362C2.12305 21.235 2.37278 20.6445 2.68136 20.6445Z" fill="url(#paint2_linear)"/>
<path d="M2.75268 20.8496H48.9469C49.1783 20.8496 49.3655 21.5498 49.3655 21.7757V48.4506C49.3655 48.6764 49.1783 49.3866 48.9469 49.3866H2.75268C2.5213 49.3866 2.33398 48.6818 2.33398 48.4561V21.7812C2.33398 21.5553 2.5213 20.8496 2.75268 20.8496Z" fill="url(#paint3_linear)"/>
<path d="M2.8221 21.0547H48.8768C49.031 21.0547 49.1559 21.8683 49.1559 22.0189V48.2074C49.1559 48.358 49.031 49.1831 48.8768 49.1831H2.8221C2.66781 49.1831 2.54297 48.3653 2.54297 48.2147V22.0262C2.54297 21.8756 2.66781 21.0547 2.8221 21.0547Z" fill="url(#paint4_linear)"/>
<path d="M2.89738 21.2578H48.8123C48.8895 21.2578 48.952 22.1847 48.952 22.26V47.9623C48.952 48.0376 48.8895 48.9775 48.8123 48.9775H2.89738C2.82023 48.9775 2.75781 48.0467 2.75781 47.9715V22.2692C2.75781 22.1939 2.82023 21.2578 2.89738 21.2578Z" fill="url(#paint5_linear)"/>
<path d="M48.7383 21.4629H2.96289V48.7739H48.7383V21.4629Z" fill="url(#paint6_linear)"/>
<path opacity="0.15" d="M2.95898 21.4629V48.7739H48.7344V21.4629H2.95898ZM48.3157 48.3655H3.37773V21.8715H48.3157V48.3655Z" fill="url(#paint7_linear)"/>
<path opacity="0.3" d="M47.2491 32.1763V31.7578H4.4375V32.1763H13.3129V39.6037H4.4375V40.0223H13.3129H13.7595H24.4953H24.9421H47.2491V39.6037H24.9421V32.1763H47.2491ZM24.4953 39.6037H13.7595V32.1763H24.4953V39.6037Z" fill="white"/>
<path opacity="0.3" d="M4.4375 45.9069V45.4883H47.2491V45.9069" fill="white"/>
<path opacity="0.8" d="M5.98468 30.6235H5.74241V29.8212H4.79588V30.6235H4.55469V28.918H4.79588V29.6191H5.74241V28.918H5.98468V30.6235Z" fill="white"/>
<path opacity="0.8" d="M7.18455 28.8887C7.43898 28.8887 7.64869 28.9699 7.811 29.132C7.97245 29.2936 8.05414 29.5082 8.05414 29.7737C8.05414 30.0389 7.97245 30.2506 7.81013 30.4115C7.64649 30.5733 7.43791 30.6529 7.18455 30.6529C6.9227 30.6529 6.71125 30.5694 6.55262 30.4037C6.39138 30.2361 6.3125 30.0331 6.3125 29.7919C6.3125 29.5122 6.39312 29.2918 6.55482 29.131C6.71734 28.9691 6.92592 28.8887 7.18455 28.8887ZM7.18235 30.4603C7.36639 30.4603 7.51654 30.4001 7.63125 30.2792C7.74556 30.1578 7.80379 29.9899 7.80492 29.7737C7.80492 29.5514 7.74556 29.3808 7.62911 29.2612C7.51153 29.1424 7.36445 29.0832 7.18843 29.0832C7.00546 29.0832 6.85532 29.1405 6.73774 29.2582C6.61913 29.3751 6.56198 29.5542 6.56198 29.7965C6.56198 29.9948 6.61913 30.1549 6.73472 30.2765C6.84923 30.399 6.99938 30.4603 7.18235 30.4603Z" fill="white"/>
<path opacity="0.8" d="M9.80021 29.9044C9.80021 29.9916 9.795 30.0738 9.7859 30.1476C9.7746 30.2233 9.7472 30.2991 9.70333 30.3785C9.65896 30.4562 9.58662 30.5222 9.48734 30.5739C9.38735 30.6275 9.25438 30.6525 9.08879 30.6525C8.92433 30.6525 8.79545 30.6284 8.6953 30.5824C8.59618 30.5356 8.52251 30.4762 8.47757 30.4033C8.42952 30.3288 8.40084 30.2522 8.3878 30.1715C8.37522 30.093 8.36914 30.003 8.36914 29.9044V28.918H8.61054V29.9016C8.61054 30.004 8.6177 30.0922 8.63293 30.1659C8.64837 30.2406 8.69116 30.3058 8.75767 30.3631C8.825 30.4206 8.92735 30.4493 9.06839 30.4493C9.20939 30.4493 9.31567 30.4265 9.38735 30.3805C9.45779 30.3353 9.50385 30.2742 9.52619 30.1974C9.54772 30.1209 9.55902 30.0231 9.55902 29.9016V28.918H9.80021V29.9044Z" fill="white"/>
<path opacity="0.8" d="M11.8098 30.6235H11.5062C11.3244 30.3554 11.2118 30.1907 11.1679 30.1295C11.124 30.0682 11.0779 30.0154 11.0299 29.9714C10.9819 29.9285 10.9358 29.8996 10.893 29.8882C10.8511 29.8766 10.7937 29.8699 10.7242 29.8699H10.4451V30.6235H10.2051V28.918H11.0106C11.1199 28.918 11.2129 28.9245 11.2874 28.938C11.3621 28.9514 11.4276 28.9782 11.4839 29.0212C11.5399 29.0623 11.5829 29.1161 11.6136 29.1805C11.6442 29.2456 11.6585 29.3136 11.6585 29.3853C11.6585 29.5136 11.6155 29.6169 11.5286 29.6956C11.4419 29.7742 11.3141 29.823 11.1485 29.8442V29.8489C11.27 29.8988 11.3847 30.003 11.4908 30.1592L11.8098 30.6235ZM10.4451 29.6687H10.9623C11.0658 29.6687 11.1485 29.6602 11.2098 29.6428C11.2713 29.6276 11.3191 29.5941 11.356 29.5461C11.3917 29.4984 11.4102 29.4447 11.4102 29.3853C11.4102 29.3077 11.3806 29.2407 11.3202 29.1861C11.2589 29.1324 11.1596 29.1055 11.0208 29.1055H10.4451V29.6687Z" fill="white"/>
<path opacity="0.8" d="M15.9931 30.6294H15.7641V29.2005H15.7588L15.2347 30.6294H15.019L14.4968 29.1775H14.4894V30.6294H14.2617V28.9238H14.6213L15.0518 30.1314C15.0996 30.2655 15.1283 30.3498 15.1357 30.3832H15.1407C15.1631 30.3182 15.1948 30.2261 15.2378 30.1104L15.6722 28.9238H15.9931V30.6294Z" fill="white"/>
<path opacity="0.8" d="M16.6581 30.6294H16.416V28.9238H16.6581V30.6294Z" fill="white"/>
<path opacity="0.8" d="M18.5257 30.6294H18.2785L17.3269 29.2895H17.3219V30.6294H17.0938V28.9238H17.3391L18.2906 30.2615H18.2948V28.9238H18.5257V30.6294Z" fill="white"/>
<path opacity="0.8" d="M20.363 29.91C20.363 29.9974 20.3569 30.0797 20.3464 30.1534C20.3364 30.2281 20.3086 30.3039 20.2647 30.3832C20.2198 30.4618 20.1482 30.5278 20.0492 30.5795C19.9488 30.6325 19.816 30.6571 19.6483 30.6571C19.4868 30.6571 19.3549 30.6341 19.2558 30.5882C19.1565 30.5413 19.0842 30.482 19.0381 30.4072C18.9909 30.3343 18.9625 30.2578 18.9492 30.1774C18.937 30.0969 18.9297 30.0088 18.9297 29.91V28.9238H19.1709V29.9072C19.1709 30.0098 19.1782 30.0969 19.1956 30.1715C19.21 30.2444 19.2508 30.3115 19.3193 30.369C19.3858 30.4253 19.489 30.4541 19.6281 30.4541C19.771 30.4541 19.8762 30.432 19.9488 30.3861C20.0194 30.3401 20.0665 30.279 20.0879 30.2022C20.1083 30.1267 20.1196 30.028 20.1196 29.9072V28.9238H20.363V29.91Z" fill="white"/>
<path opacity="0.8" d="M22.0661 29.1258H21.4631V30.6294H21.2219V29.1258H20.625V28.9238H22.0661V29.1258Z" fill="white"/>
<path opacity="0.8" d="M23.6741 30.6294H22.3145V28.9238H23.633V29.1258H22.5559V29.6478H23.5637V29.8488H22.5559V30.4264H23.6741V30.6294Z" fill="white"/>
<path opacity="0.8" d="M27.7148 29.4183C27.7046 29.3099 27.6627 29.2287 27.5893 29.1731C27.5156 29.1194 27.4102 29.0924 27.2734 29.0924C27.1486 29.0924 27.0473 29.1136 26.9698 29.1568C26.892 29.2008 26.853 29.2631 26.853 29.3464C26.853 29.4203 26.8829 29.4749 26.943 29.5111C27.0026 29.5475 27.1179 29.5831 27.2877 29.6195C27.4389 29.6499 27.5615 29.6817 27.6566 29.7143C27.7518 29.7469 27.8335 29.7975 27.902 29.8666C27.9684 29.9344 28.003 30.0264 28.003 30.1422C28.003 30.2888 27.9408 30.4115 27.8161 30.5081C27.6914 30.6049 27.5289 30.6529 27.3296 30.6529C27.073 30.6529 26.8818 30.6002 26.754 30.4929C26.6273 30.3864 26.5597 30.2477 26.5527 30.0763L26.7807 30.0572C26.7918 30.194 26.848 30.2937 26.9504 30.3558C27.0515 30.4191 27.1751 30.4497 27.3194 30.4497C27.4532 30.4497 27.5625 30.4238 27.6453 30.3724C27.7281 30.3196 27.7711 30.2495 27.7711 30.1596C27.7711 30.0668 27.7281 29.9997 27.6401 29.9566C27.5534 29.9134 27.4072 29.8712 27.2029 29.8291C26.9984 29.7888 26.8501 29.7306 26.7601 29.6548C26.6692 29.5801 26.6242 29.4824 26.6242 29.3618C26.6242 29.2248 26.6814 29.1116 26.7959 29.0226C26.9096 28.9337 27.0658 28.8887 27.2631 28.8887C27.4646 28.8887 27.627 28.9337 27.7507 29.0226C27.8734 29.1116 27.9387 29.2383 27.9458 29.4011L27.7148 29.4183Z" fill="white"/>
<path opacity="0.8" d="M29.7003 30.6235H28.3398V28.918H29.6586V29.12H28.5812V29.642H29.5891V29.8442H28.5812V30.4216H29.7003V30.6235Z" fill="white"/>
<path opacity="0.8" d="M31.5687 30.084C31.5158 30.2754 31.4236 30.4182 31.2908 30.512C31.1598 30.6058 31.0003 30.6529 30.8175 30.6529C30.5192 30.6529 30.3015 30.5666 30.1654 30.3905C30.0283 30.2159 29.9609 30.0062 29.9609 29.759C29.9609 29.4881 30.0407 29.2745 30.2011 29.1204C30.3614 28.9663 30.567 28.8887 30.8187 28.8887C30.9953 28.8887 31.1476 28.9308 31.2733 29.0159C31.3992 29.1002 31.4879 29.224 31.537 29.3875L31.3019 29.4394C31.2621 29.3205 31.202 29.2326 31.1211 29.1721C31.0402 29.1116 30.9382 29.0832 30.8175 29.0832C30.6183 29.0832 30.467 29.1434 30.3647 29.2659C30.2615 29.3875 30.2115 29.5514 30.2115 29.7583C30.2115 29.9948 30.2645 30.171 30.3719 30.2868C30.4801 30.4028 30.6213 30.4603 30.7949 30.4603C30.9382 30.4603 31.0537 30.4238 31.1416 30.352C31.2315 30.2792 31.2937 30.171 31.3297 30.0254L31.5687 30.084Z" fill="white"/>
<path opacity="0.8" d="M32.6602 28.8887C32.9157 28.8887 33.1241 28.9699 33.2855 29.132C33.4492 29.2936 33.5298 29.5082 33.5298 29.7737C33.5298 30.0389 33.4492 30.2506 33.2855 30.4115C33.1221 30.5733 32.9135 30.6529 32.6602 30.6529C32.3983 30.6529 32.1869 30.5694 32.0274 30.4037C31.8679 30.2361 31.7871 30.0331 31.7871 29.7919C31.7871 29.5122 31.8688 29.2918 32.0305 29.131C32.1919 28.9691 32.4024 28.8887 32.6602 28.8887ZM32.6591 30.4603C32.8431 30.4603 32.9922 30.4001 33.1078 30.2792C33.2212 30.1578 33.2795 29.9899 33.2803 29.7737C33.2803 29.5514 33.2212 29.3808 33.1047 29.2612C32.987 29.1424 32.8398 29.0832 32.6641 29.0832C32.4811 29.0832 32.3307 29.1405 32.2134 29.2582C32.0959 29.3751 32.0374 29.5542 32.0374 29.7965C32.0374 29.9948 32.0948 30.1549 32.2093 30.2765C32.3246 30.399 32.475 30.4603 32.6591 30.4603Z" fill="white"/>
<path opacity="0.8" d="M35.2805 30.6235H35.0333L34.0815 29.2836H34.0765V30.6235H33.8477V28.918H34.095L35.0455 30.2569H35.0507V28.918H35.2805V30.6235Z" fill="white"/>
<path opacity="0.8" d="M35.6875 28.918H36.3159C36.4265 28.918 36.5215 28.9227 36.6001 28.9333C36.681 28.9447 36.7558 28.9695 36.8292 29.0098C36.9018 29.0509 36.9653 29.1076 37.0193 29.1784C37.0734 29.2493 37.1153 29.3325 37.147 29.4246C37.1777 29.5174 37.1943 29.6296 37.1943 29.7617C37.1943 30.0136 37.1297 30.2194 37.003 30.3805C36.8742 30.5421 36.6553 30.6235 36.3437 30.6235H35.6875V28.918ZM35.9287 30.4216H36.3192C36.3989 30.4216 36.4694 30.4167 36.5319 30.4073C36.5951 30.3975 36.6575 30.3727 36.7218 30.3316C36.7863 30.2913 36.8386 30.2233 36.8824 30.1295C36.9232 30.0356 36.9456 29.9122 36.9456 29.7579C36.9456 29.6717 36.9376 29.5921 36.9203 29.5174C36.9039 29.4437 36.8742 29.3767 36.8313 29.3153C36.7884 29.255 36.7384 29.2089 36.681 29.1812C36.6258 29.1535 36.5706 29.1363 36.5165 29.1295C36.4644 29.1228 36.3959 29.12 36.312 29.12H35.9287V30.4216Z" fill="white"/>
<path opacity="0.8" d="M4.46289 42.2188H5.09175C5.20212 42.2188 5.29711 42.2236 5.37686 42.2341C5.45548 42.2444 5.53109 42.2705 5.60369 42.3106C5.67628 42.3519 5.73972 42.4073 5.79381 42.4791C5.84902 42.55 5.89094 42.6325 5.92269 42.7254C5.95224 42.8182 5.96875 42.9304 5.96875 43.0625C5.96875 43.3143 5.90531 43.5202 5.77643 43.6811C5.64975 43.8431 5.42987 43.9245 5.1191 43.9245H4.46289V42.2188ZM4.70409 43.7213H5.09456C5.17344 43.7213 5.24496 43.7177 5.30728 43.7079C5.37072 43.6983 5.43289 43.6735 5.4972 43.6322C5.56177 43.5921 5.61499 43.5241 5.6567 43.4302C5.69975 43.3366 5.72014 43.2128 5.72014 43.0576C5.72014 42.9725 5.71212 42.8931 5.69561 42.8182C5.6793 42.7445 5.64975 42.6775 5.6067 42.6162C5.56284 42.5547 5.51284 42.5099 5.45656 42.4822C5.40032 42.4543 5.34598 42.437 5.29189 42.4303C5.23883 42.4236 5.17043 42.4207 5.08653 42.4207H4.70409V43.7213Z" fill="white"/>
<path opacity="0.8" d="M7.79973 43.9245H7.5277L7.31299 43.4054H6.55377L6.35214 43.9245H6.09766L6.79691 42.2188H7.05661L7.79973 43.9245ZM7.24045 43.2262C7.09137 42.8577 7.00641 42.6478 6.98923 42.5971C6.96858 42.5472 6.94925 42.4802 6.92471 42.3969H6.9195C6.89491 42.5119 6.86536 42.617 6.82538 42.7147L6.62202 43.2262H7.24045Z" fill="white"/>
<path opacity="0.8" d="M9.29398 42.4207H8.69186V43.9245H8.44852V42.4207H7.85156V42.2188H9.29398V42.4207Z" fill="white"/>
<path opacity="0.8" d="M10.9104 43.9245H9.55078V42.2188H10.8685V42.4207H9.79111V42.9428H10.7989V43.1439H9.79111V43.7213H10.9104V43.9245Z" fill="white"/>
<path d="M24.4956 32.1758H13.7598V39.6033H24.4956V32.1758Z" fill="url(#paint8_linear)"/>
<path d="M13.3142 32.1758H4.46289V39.6033H13.3142V32.1758Z" fill="url(#paint9_linear)"/>
<path d="M47.2484 32.1758H24.9414V39.6033H47.2484V32.1758Z" fill="url(#paint10_linear)"/>
<path d="M6.43842 35.97L6.59184 36.13L6.35258 38.3767C6.27288 38.5913 6.11553 38.7243 5.88129 38.778L5.69336 38.1355L5.87219 36.4509L6.43842 35.97ZM5.99278 35.3274L6.17161 33.6425L6.49777 33C6.72051 33.0548 6.84934 33.1878 6.88303 33.4021L6.6427 35.6483L6.45493 35.8091L5.99278 35.3274Z" fill="url(#paint11_linear)"/>
<path d="M10.1659 38.778H7.5962C7.37325 38.7243 7.24463 38.5913 7.21094 38.3767L7.92128 38.1355H9.97687L10.1659 38.778ZM7.22725 38.216L7.45106 36.13L7.63812 35.97L8.10118 36.4509L7.93867 37.9755L7.22725 38.216ZM8.38323 33.8026L8.22071 35.3274L7.6555 35.8091L7.50101 35.6483L7.72395 33.5622L8.38323 33.8026ZM10.4562 33.6425H8.40889L7.74961 33.4021C7.82937 33.1878 7.98667 33.0548 8.22071 33H10.7824L10.4562 33.6425ZM10.8926 35.97L11.0471 36.13L10.8078 38.3767C10.727 38.5913 10.5708 38.7243 10.3367 38.778L10.1477 38.1355L10.3276 36.4509L10.8926 35.97ZM10.448 35.3274L10.627 33.6425L10.9529 33C11.1759 33.0548 11.3046 33.1878 11.3385 33.4021L11.0981 35.6483L10.9102 35.8091L10.448 35.3274Z" fill="url(#paint12_linear)"/>
<path d="M12.3108 38.7773H11.625L11.6945 38.1348H12.3792L12.3108 38.7773Z" fill="url(#paint13_linear)"/>
<path d="M17.0185 35.97L17.1719 36.13L16.9327 38.3767C16.853 38.5913 16.6954 38.7243 16.4616 38.778L16.2734 38.1355L16.4525 36.4509L17.0185 35.97ZM16.5729 35.3274L16.7528 33.6425L17.0778 33C17.3008 33.0548 17.4294 33.1878 17.4642 33.4021L17.2241 35.6483L17.0348 35.8091L16.5729 35.3274Z" fill="url(#paint14_linear)"/>
<path d="M20.7482 38.778H18.1784C17.9555 38.7243 17.8267 38.5913 17.793 38.3767L18.5044 38.1355H20.5589L20.7482 38.778ZM17.8095 38.216L18.0333 36.13L18.2213 35.97L18.6832 36.4509L18.5207 37.9755L17.8095 38.216ZM18.9664 33.8026L18.8029 35.3274L18.2387 35.8091L18.0844 35.6483L18.3062 33.5622L18.9664 33.8026ZM21.2949 33.6425H18.992L18.3327 33.4021C18.4123 33.1878 18.5698 33.0548 18.8029 33H21.6208L21.2949 33.6425ZM21.0046 35.5679L21.3132 35.8896L20.9359 36.2102H18.71L18.4012 35.8896L18.7773 35.5679H21.0046ZM21.4757 35.97L21.6291 36.13L21.3898 38.3767C21.3101 38.5913 21.1528 38.7243 20.9187 38.778L20.7306 38.1355L20.9094 36.4509L21.4757 35.97Z" fill="url(#paint15_linear)"/>
<path d="M22.8822 38.7773H22.1973L22.2657 38.1348H22.9517L22.8822 38.7773Z" fill="url(#paint16_linear)"/>
<path d="M30.0376 38.778H27.2114C26.9887 38.7243 26.8599 38.5913 26.8262 38.3767L27.5376 38.1355H29.8497L30.0376 38.778ZM26.8425 38.216L27.0663 36.13L27.2543 35.97L27.7164 36.4509L27.5537 37.9755L26.8425 38.216ZM30.0713 33.6425H28.025L27.3659 33.4021C27.4455 33.1878 27.603 33.0548 27.8359 33H30.3975L30.0713 33.6425ZM30.0376 35.5679L30.3464 35.8896L29.9692 36.2102H27.743L27.4342 35.8896L27.8106 35.5679H30.0376ZM30.0632 35.3274L30.2432 33.6425L30.568 33C30.7909 33.0548 30.9199 33.1878 30.9535 33.4021L30.7142 35.6483L30.5252 35.8091L30.0632 35.3274Z" fill="url(#paint17_linear)"/>
<path d="M34.2343 38.778H31.6646C31.4419 38.7243 31.313 38.5913 31.2793 38.3767L31.9907 38.1355H34.0452L34.2343 38.778ZM31.2957 38.216L31.5195 36.13L31.7076 35.97L32.1695 36.4509L32.0071 37.9755L31.2957 38.216ZM32.4527 33.8026L32.2891 35.3274L31.725 35.8091L31.5696 35.6483L31.7924 33.5622L32.4527 33.8026ZM34.5247 33.6425H32.4781L31.818 33.4021C31.8988 33.1878 32.0562 33.0548 32.2891 33H34.8505L34.5247 33.6425ZM34.4907 35.5679L34.7984 35.8896L34.4214 36.2102H32.1952L31.8876 35.8896L32.2636 35.5679H34.4907ZM34.9623 35.97L35.1154 36.13L34.8762 38.3767C34.7964 38.5913 34.6392 38.7243 34.4051 38.778L34.2169 38.1355L34.3957 36.4509L34.9623 35.97ZM34.5164 35.3274L34.6963 33.6425L35.0214 33C35.2443 33.0548 35.373 33.1878 35.4068 33.4021L35.1665 35.6483L34.9783 35.8091L34.5164 35.3274Z" fill="url(#paint18_linear)"/>
<path d="M36.3781 38.7773H35.6934L35.7619 38.1348H36.4476L36.3781 38.7773Z" fill="url(#paint19_linear)"/>
<path d="M40.2305 38.778H37.6606C37.4389 38.7243 37.3102 38.5913 37.2754 38.3767L37.9868 38.1355H40.0422L40.2305 38.778ZM37.2928 38.216L37.5156 36.13L37.7037 35.97L38.1668 36.4509L38.0032 37.9755L37.2928 38.216ZM38.4489 33.8026L38.2863 35.3274L37.7211 35.8091L37.5666 35.6483L37.7896 33.5622L38.4489 33.8026ZM40.5218 33.6425H38.4744L37.8151 33.4021C37.8947 33.1878 38.0522 33.0548 38.2863 33H40.8469L40.5218 33.6425ZM40.487 35.5679L40.7956 35.8896L40.4186 36.2102H38.1922L37.8834 35.8896L38.2598 35.5679H40.487ZM40.9581 35.97L41.1115 36.13L40.8726 38.3767C40.7926 38.5913 40.6353 38.7243 40.402 38.778L40.2131 38.1355L40.3929 36.4509L40.9581 35.97ZM40.5127 35.3274L40.6926 33.6425L41.0186 33C41.2402 33.0548 41.3693 33.1878 41.4038 33.4021L41.1637 35.6483L40.9746 35.8091L40.5127 35.3274Z" fill="url(#paint20_linear)"/>
<path d="M44.6835 38.778H42.1138C41.8921 38.7243 41.7633 38.5913 41.7285 38.3767L42.4399 38.1355H44.4954L44.6835 38.778ZM41.7449 38.216L41.9687 36.13L42.1568 35.97L42.6188 36.4509L42.4563 37.9755L41.7449 38.216ZM42.9022 33.8026L42.7383 35.3274L42.1742 35.8091L42.0199 35.6483L42.2416 33.5622L42.9022 33.8026ZM44.9739 33.6425H42.9275L42.2683 33.4021C42.348 33.1878 42.5054 33.0548 42.7383 33H45.2998L44.9739 33.6425ZM44.9401 35.5679L45.2489 35.8896L44.8717 36.2102H42.6453L42.3368 35.8896L42.7129 35.5679H44.9401ZM45.4115 35.97L45.5646 36.13L45.3254 38.3767C45.2458 38.5913 45.0886 38.7243 44.8543 38.778L44.6661 38.1355L44.8452 36.4509L45.4115 35.97ZM44.9658 35.3274L45.1457 33.6425L45.4706 33C45.6935 33.0548 45.8224 33.1878 45.857 33.4021L45.6168 35.6483L45.4275 35.8091L44.9658 35.3274Z" fill="url(#paint21_linear)"/>
<path d="M4.30005 13.9727C3.86653 13.9727 3.51562 14.3015 3.51562 14.7079V24.0282C3.51562 24.4344 3.86653 24.7642 4.30005 24.7642H14.2483C14.6811 24.7642 15.0327 24.4344 15.0327 24.0282V21.8741L6.59989 13.9727H4.30005Z" fill="url(#paint22_linear)"/>
<path d="M4.30071 24.5587C3.98769 24.5587 3.73438 24.3204 3.73438 24.0271V14.7067C3.73438 14.4133 3.98769 14.1758 4.30071 14.1758H6.51037L14.8154 21.9575V24.0271C14.8154 24.3204 14.5616 24.5587 14.2489 24.5587H4.30071Z" fill="url(#paint23_linear)"/>
<path d="M4.29752 24.3549C4.10499 24.3549 3.94922 24.2082 3.94922 24.0278V14.7074C3.94922 14.5271 4.10499 14.3809 4.29752 14.3809H6.417L14.5942 22.0429V24.0278C14.5942 24.2082 14.4383 24.3549 14.2457 24.3549H4.29752Z" fill="url(#paint24_linear)"/>
<path d="M1.7179 21.0504C1.71575 21.0758 1.70312 21.0247 1.70312 21.0504V26.1609C1.70312 26.6125 2.07775 26.9782 2.54061 26.9782H49.1535C49.6164 26.9782 49.9909 26.6125 49.9909 26.1609V21.0504C49.9909 21.0247 49.9934 21.0758 49.9909 21.0504H1.7179Z" fill="url(#paint25_linear)"/>
<path d="M49.1535 20.2363H2.54061C2.07775 20.2363 1.70312 20.5963 1.70312 21.0481H49.9909C49.9909 20.5963 49.6164 20.2363 49.1535 20.2363Z" fill="url(#paint26_linear)"/>
<path d="M6.46492 21.0508H1.70312V26.1613C1.70312 26.2521 1.72792 26.3368 1.7566 26.418L6.46492 21.0508Z" fill="#303033"/>
<path d="M7.55273 26.9786H13.8328L19.0335 21.0508H12.7537L7.55273 26.9786Z" fill="#303033"/>
<path d="M20.1113 26.9786H26.3917L31.5922 21.0508H25.3121L20.1113 26.9786Z" fill="#303033"/>
<path d="M32.666 26.9786H38.9463L44.147 21.0508H37.867L32.666 26.9786Z" fill="#303033"/>
<path d="M49.1626 26.9773C49.6255 26.9773 50 26.6116 50 26.16V21.5508L45.2344 26.9773H49.1626Z" fill="#303033"/>
<path opacity="0.4" d="M49.9909 21.0508H1.70312V23.7676H49.9909V21.0508Z" fill="url(#paint27_linear)"/>
<path d="M2.54061 20.2363C2.07775 20.2363 1.70312 20.5963 1.70312 21.0481H6.46492L6.88367 20.2363H2.54061Z" fill="#48484D"/>
<path d="M13.1374 20.2363H19.4479L19.029 21.0481H12.7188L13.1374 20.2363Z" fill="#48484D"/>
<path d="M25.7061 20.2363H32.0165L31.5977 21.0481H25.2871L25.7061 20.2363Z" fill="#48484D"/>
<path d="M38.2547 20.2363H44.5652L44.1464 21.0481H37.8359L38.2547 20.2363Z" fill="#48484D"/>
<path d="M0.0583888 14.5464C0.0648814 14.5712 0.0362016 14.5264 0.0444835 14.5506L1.72979 19.4108C1.87886 19.8405 2.35563 20.0797 2.79584 19.9457L47.1272 6.44905C47.5674 6.31507 47.803 5.859 47.6543 5.42942L45.9688 0.568982C45.9603 0.544984 45.9655 0.5971 45.9547 0.573485L0.0583888 14.5464Z" fill="url(#paint28_linear)"/>
<path d="M44.9048 0.0377221L0.573371 13.5342C0.133156 13.6682 -0.104564 14.1189 0.0445095 14.5487L45.9688 0.567079C45.8199 0.1375 45.3449 -0.0962577 44.9048 0.0377221Z" fill="url(#paint29_linear)"/>
<path d="M4.56769 13.1699L0.0390625 14.5487L1.72436 19.4089C1.75458 19.4955 1.80565 19.569 1.85999 19.6378L4.56769 13.1699Z" fill="#303033"/>
<path d="M7.55273 18.495L13.5255 16.6764L16.5168 9.5332L10.544 11.3514L7.55273 18.495Z" fill="#303033"/>
<path d="M19.4961 14.8583L25.4689 13.0399L28.4601 5.89648L22.4874 7.71486L19.4961 14.8583Z" fill="#303033"/>
<path d="M31.4453 11.2235L37.4179 9.40513L40.4092 2.26172L34.4366 4.0801L31.4453 11.2235Z" fill="#303033"/>
<path d="M47.1247 6.44618C47.5649 6.3122 47.8004 5.85613 47.6518 5.42655L46.1316 1.04297L43.3887 7.58374L47.1247 6.44618Z" fill="#303033"/>
<path opacity="0.4" d="M46.8592 3.15053L0.935188 17.132L0.0390625 14.5481L45.9634 0.566406L46.8592 3.15053Z" fill="url(#paint30_linear)"/>
<path d="M0.573371 13.5328C0.133156 13.6668 -0.104564 14.1176 0.0445095 14.5474L4.57314 13.1686L4.70371 12.2754L0.573371 13.5328Z" fill="#48484D"/>
<path d="M10.6421 10.4678L16.6438 8.64062L16.5132 9.53403L10.5117 11.361L10.6421 10.4678Z" fill="#48484D"/>
<path d="M22.5915 6.8291L28.5931 5.00195L28.4625 5.89517L22.4609 7.72226L22.5915 6.8291Z" fill="#48484D"/>
<path d="M34.5351 3.19428L40.5365 1.36719L40.406 2.2604L34.4043 4.0875L34.5351 3.19428Z" fill="#48484D"/>
<path d="M3.87062 14.791C3.43689 14.791 3.08594 15.1198 3.08594 15.5262V24.8465C3.08594 25.2528 3.43689 25.5827 3.87062 25.5827H13.8186C14.2512 25.5827 14.6032 25.2528 14.6032 24.8465V22.6924L6.17046 14.791H3.87062Z" fill="url(#paint31_linear)"/>
<path d="M3.86778 25.5207C3.4703 25.5207 3.14844 25.2181 3.14844 24.8458V15.5254C3.14844 15.1531 3.4703 14.8516 3.86778 14.8516H6.14048L14.5349 22.7171V24.8458C14.5349 25.2181 14.2123 25.5207 13.8157 25.5207H3.86778Z" fill="url(#paint32_linear)"/>
<path d="M3.87672 25.4584C3.51538 25.4584 3.22266 25.1835 3.22266 24.845V15.5247C3.22266 15.1865 3.51538 14.9121 3.87672 14.9121H6.12222L14.4784 22.7418V24.845C14.4784 25.1835 14.1849 25.4584 13.8246 25.4584H3.87672Z" fill="url(#paint33_linear)"/>
<path d="M3.87398 25.3963C3.54885 25.3963 3.28516 25.1488 3.28516 24.8442V15.5239C3.28516 15.2197 3.54885 14.9727 3.87398 14.9727H6.09229L14.4101 22.7664V24.8442C14.4101 25.1488 14.146 25.3963 13.8219 25.3963H3.87398Z" fill="url(#paint34_linear)"/>
<path d="M3.86724 25.3361C3.57835 25.3361 3.34375 25.1161 3.34375 24.8454V15.5251C3.34375 15.255 3.57835 15.0352 3.86724 15.0352H6.05845L14.3379 22.793V24.8454C14.3379 25.1161 14.1031 25.3361 13.8152 25.3361H3.86724Z" fill="url(#paint35_linear)"/>
<path d="M3.87027 25.274C3.61762 25.274 3.41211 25.0814 3.41211 24.8447V15.5243C3.41211 15.2883 3.61762 15.0957 3.87027 15.0957H6.03433L14.2755 22.8177V24.8447C14.2755 25.0814 14.07 25.274 13.8182 25.274H3.87027Z" fill="url(#paint36_linear)"/>
<path d="M3.87334 25.2118C3.65689 25.2118 3.48047 25.0467 3.48047 24.8439V15.5236C3.48047 15.3216 3.65689 15.1562 3.87334 15.1562H6.01021L14.2131 22.8423V24.8439C14.2131 25.0467 14.0368 25.2118 13.8213 25.2118H3.87334Z" fill="url(#paint37_linear)"/>
<path opacity="0.3" d="M6.0063 15.1562H3.86944C3.65299 15.1562 3.47656 15.3216 3.47656 15.5236V15.8912C3.47656 15.6887 3.65299 15.5236 3.86944 15.5236H6.0063L14.2092 23.2094V22.8423L6.0063 15.1562Z" fill="url(#paint38_linear)"/>
<path opacity="0.5" d="M6.34292 16.9552C6.34292 17.4852 5.88292 17.9162 5.31663 17.9162C4.74928 17.9162 4.29102 17.4852 4.29102 16.9552C4.29102 16.4252 4.74928 15.9941 5.31663 15.9941C5.88292 15.9941 6.34292 16.4252 6.34292 16.9552Z" fill="url(#paint39_linear)"/>
<path d="M6.22566 16.956C6.22566 17.4283 5.81673 17.8123 5.31174 17.8123C4.80737 17.8123 4.39844 17.4283 4.39844 16.956C4.39844 16.4836 4.80737 16.0996 5.31174 16.0996C5.81673 16.0996 6.22566 16.4836 6.22566 16.956Z" fill="url(#paint40_radial)"/>
<path opacity="0.5" d="M6.34292 23.5769C6.34292 24.107 5.88292 24.5378 5.31663 24.5378C4.74928 24.5378 4.29102 24.107 4.29102 23.5769C4.29102 23.0462 4.74928 22.6152 5.31663 22.6152C5.88292 22.6152 6.34292 23.0462 6.34292 23.5769Z" fill="url(#paint41_linear)"/>
<path d="M6.22566 23.5768C6.22566 24.0494 5.81673 24.4324 5.31174 24.4324C4.80737 24.4324 4.39844 24.0494 4.39844 23.5768C4.39844 23.1037 4.80737 22.7207 5.31174 22.7207C5.81673 22.7207 6.22566 23.1037 6.22566 23.5768Z" fill="url(#paint42_radial)"/>
<path opacity="0.5" d="M13.4029 23.5769C13.4029 24.107 12.9428 24.5378 12.3772 24.5378C11.8098 24.5378 11.3516 24.107 11.3516 23.5769C11.3516 23.0462 11.8098 22.6152 12.3772 22.6152C12.9428 22.6152 13.4029 23.0462 13.4029 23.5769Z" fill="url(#paint43_linear)"/>
<path d="M13.2966 23.5768C13.2966 24.0494 12.8868 24.4324 12.3827 24.4324C11.8783 24.4324 11.4688 24.0494 11.4688 23.5768C11.4688 23.1037 11.8783 22.7207 12.3827 22.7207C12.8868 22.7207 13.2966 23.1037 13.2966 23.5768Z" fill="url(#paint44_radial)"/>
<path opacity="0.7" d="M49.9909 26.9785H1.70312V28.4805H49.9909V26.9785Z" fill="url(#paint45_linear)"/>
<defs>
<linearGradient id="paint0_linear" x1="25.8529" y1="49.8056" x2="25.8529" y2="20.5559" gradientUnits="userSpaceOnUse">
<stop/>
<stop offset="1" stop-color="#18191A"/>
</linearGradient>
<linearGradient id="paint1_linear" x1="25.8525" y1="49.6534" x2="25.8525" y2="20.6888" gradientUnits="userSpaceOnUse">
<stop stop-color="#020203"/>
<stop offset="1" stop-color="#1D1E20"/>
</linearGradient>
<linearGradient id="paint2_linear" x1="25.8482" y1="49.4977" x2="25.8482" y2="20.8217" gradientUnits="userSpaceOnUse">
<stop stop-color="#050506"/>
<stop offset="1" stop-color="#222327"/>
</linearGradient>
<linearGradient id="paint3_linear" x1="25.8497" y1="49.3427" x2="25.8497" y2="20.9584" gradientUnits="userSpaceOnUse">
<stop stop-color="#070709"/>
<stop offset="1" stop-color="#26282D"/>
</linearGradient>
<linearGradient id="paint4_linear" x1="25.8494" y1="49.1864" x2="25.8494" y2="21.0969" gradientUnits="userSpaceOnUse">
<stop stop-color="#0A0A0C"/>
<stop offset="1" stop-color="#2B2D33"/>
</linearGradient>
<linearGradient id="paint5_linear" x1="25.8549" y1="49.0267" x2="25.8549" y2="21.2355" gradientUnits="userSpaceOnUse">
<stop stop-color="#0D0D0F"/>
<stop offset="1" stop-color="#30323A"/>
</linearGradient>
<linearGradient id="paint6_linear" x1="25.8506" y1="48.8676" x2="25.8506" y2="21.3777" gradientUnits="userSpaceOnUse">
<stop stop-color="#0F0F12"/>
<stop offset="1" stop-color="#353740"/>
</linearGradient>
<linearGradient id="paint7_linear" x1="3.23862" y1="35.1184" x2="48.6668" y2="35.1184" gradientUnits="userSpaceOnUse">
<stop stop-color="white" stop-opacity="0.2"/>
<stop offset="0.290909" stop-color="white"/>
<stop offset="0.757576" stop-color="white" stop-opacity="0.8"/>
<stop offset="1" stop-color="white" stop-opacity="0.2"/>
</linearGradient>
<linearGradient id="paint8_linear" x1="19.1277" y1="39.6287" x2="19.1277" y2="32.1526" gradientUnits="userSpaceOnUse">
<stop stop-color="#808080"/>
<stop offset="1" stop-color="#353740"/>
</linearGradient>
<linearGradient id="paint9_linear" x1="8.88851" y1="39.6287" x2="8.88851" y2="32.1526" gradientUnits="userSpaceOnUse">
<stop stop-color="#808080"/>
<stop offset="1" stop-color="#353740"/>
</linearGradient>
<linearGradient id="paint10_linear" x1="36.0949" y1="39.6287" x2="36.0949" y2="32.1526" gradientUnits="userSpaceOnUse">
<stop stop-color="#808080"/>
<stop offset="1" stop-color="#353740"/>
</linearGradient>
<linearGradient id="paint11_linear" x1="6.28817" y1="38.8815" x2="6.28817" y2="33.5123" gradientUnits="userSpaceOnUse">
<stop stop-color="#03B76D"/>
<stop offset="1" stop-color="#00D87F"/>
</linearGradient>
<linearGradient id="paint12_linear" x1="9.2747" y1="38.8815" x2="9.2747" y2="33.5123" gradientUnits="userSpaceOnUse">
<stop stop-color="#03B76D"/>
<stop offset="1" stop-color="#00D87F"/>
</linearGradient>
<linearGradient id="paint13_linear" x1="12.0021" y1="38.8808" x2="12.0021" y2="33.5086" gradientUnits="userSpaceOnUse">
<stop stop-color="#03B76D"/>
<stop offset="1" stop-color="#CC0000"/>
</linearGradient>
<linearGradient id="paint14_linear" x1="16.8688" y1="38.8815" x2="16.8688" y2="33.5123" gradientUnits="userSpaceOnUse">
<stop stop-color="#03B76D"/>
<stop offset="1" stop-color="#00D87F"/>
</linearGradient>
<linearGradient id="paint15_linear" x1="19.711" y1="38.8815" x2="19.711" y2="33.5123" gradientUnits="userSpaceOnUse">
<stop stop-color="#03B76D"/>
<stop offset="1" stop-color="#00D87F"/>
</linearGradient>
<linearGradient id="paint16_linear" x1="22.5745" y1="38.8808" x2="22.5745" y2="33.5086" gradientUnits="userSpaceOnUse">
<stop stop-color="#03B76D"/>
<stop offset="1" stop-color="#CC0000"/>
</linearGradient>
<linearGradient id="paint17_linear" x1="28.8899" y1="38.8815" x2="28.8899" y2="33.5123" gradientUnits="userSpaceOnUse">
<stop stop-color="#03B76D"/>
<stop offset="1" stop-color="#00D87F"/>
</linearGradient>
<linearGradient id="paint18_linear" x1="33.3431" y1="38.8815" x2="33.3431" y2="33.5123" gradientUnits="userSpaceOnUse">
<stop stop-color="#03B76D"/>
<stop offset="1" stop-color="#00D87F"/>
</linearGradient>
<linearGradient id="paint19_linear" x1="36.0705" y1="38.8808" x2="36.0705" y2="33.5086" gradientUnits="userSpaceOnUse">
<stop stop-color="#03B76D"/>
<stop offset="1" stop-color="#CC0000"/>
</linearGradient>
<linearGradient id="paint20_linear" x1="39.3396" y1="38.8815" x2="39.3396" y2="33.5123" gradientUnits="userSpaceOnUse">
<stop stop-color="#03B76D"/>
<stop offset="1" stop-color="#00D87F"/>
</linearGradient>
<linearGradient id="paint21_linear" x1="43.7927" y1="38.8815" x2="43.7927" y2="33.5123" gradientUnits="userSpaceOnUse">
<stop stop-color="#03B76D"/>
<stop offset="1" stop-color="#00D87F"/>
</linearGradient>
<linearGradient id="paint22_linear" x1="9.27416" y1="24.706" x2="9.27416" y2="14.2096" gradientUnits="userSpaceOnUse">
<stop stop-color="#0A0B0D"/>
<stop offset="1" stop-color="#232526"/>
</linearGradient>
<linearGradient id="paint23_linear" x1="9.27487" y1="24.5027" x2="9.27487" y2="14.4037" gradientUnits="userSpaceOnUse">
<stop stop-color="#050607"/>
<stop offset="1" stop-color="#1E1F20"/>
</linearGradient>
<linearGradient id="paint24_linear" x1="9.27173" y1="24.3012" x2="9.27173" y2="14.5998" gradientUnits="userSpaceOnUse">
<stop/>
<stop offset="1" stop-color="#18191A"/>
</linearGradient>
<linearGradient id="paint25_linear" x1="25.8475" y1="26.949" x2="25.8475" y2="21.0138" gradientUnits="userSpaceOnUse">
<stop offset="0.066667" stop-color="#2F3133"/>
<stop offset="0.09697" stop-color="#616266"/>
<stop offset="0.430303" stop-color="#939399"/>
<stop offset="0.454545" stop-color="#A3A3A9"/>
<stop offset="1" stop-color="#C6C6CC"/>
</linearGradient>
<linearGradient id="paint26_linear" x1="25.847" y1="20.2704" x2="25.847" y2="20.988" gradientUnits="userSpaceOnUse">
<stop stop-color="#313133"/>
<stop offset="0.406061" stop-color="#626266"/>
<stop offset="0.563636" stop-color="#6C6C70"/>
<stop offset="1" stop-color="#959599"/>
</linearGradient>
<linearGradient id="paint27_linear" x1="25.847" y1="20.5733" x2="25.847" y2="23.9516" gradientUnits="userSpaceOnUse">
<stop stop-color="white"/>
<stop offset="1" stop-color="white" stop-opacity="0"/>
</linearGradient>
<linearGradient id="paint28_linear" x1="24.952" y1="13.1703" x2="23.2131" y2="7.45786" gradientUnits="userSpaceOnUse">
<stop offset="0.066667" stop-color="#2F3133"/>
<stop offset="0.09697" stop-color="#616266"/>
<stop offset="0.430303" stop-color="#939399"/>
<stop offset="0.454545" stop-color="#A3A3A9"/>
<stop offset="1" stop-color="#C6C6CC"/>
</linearGradient>
<linearGradient id="paint29_linear" x1="22.75" y1="6.81785" x2="22.9605" y2="7.50935" gradientUnits="userSpaceOnUse">
<stop stop-color="#313133"/>
<stop offset="0.406061" stop-color="#626266"/>
<stop offset="0.563636" stop-color="#6C6C70"/>
<stop offset="1" stop-color="#959599"/>
</linearGradient>
<linearGradient id="paint30_linear" x1="22.8434" y1="7.10219" x2="23.8336" y2="10.355" gradientUnits="userSpaceOnUse">
<stop stop-color="white"/>
<stop offset="1" stop-color="white" stop-opacity="0"/>
</linearGradient>
<linearGradient id="paint31_linear" x1="8.84457" y1="25.5246" x2="8.84457" y2="15.028" gradientUnits="userSpaceOnUse">
<stop/>
<stop offset="1" stop-color="#18191A"/>
</linearGradient>
<linearGradient id="paint32_linear" x1="8.84169" y1="25.4679" x2="8.84169" y2="15.0257" gradientUnits="userSpaceOnUse">
<stop stop-color="#040404"/>
<stop offset="0.945455" stop-color="#1E1F22"/>
<stop offset="0.975758" stop-color="#282A2E"/>
<stop offset="1" stop-color="#292B2F"/>
</linearGradient>
<linearGradient id="paint33_linear" x1="8.85052" y1="25.411" x2="8.85052" y2="15.0248" gradientUnits="userSpaceOnUse">
<stop stop-color="#080809"/>
<stop offset="0.945455" stop-color="#25262A"/>
<stop offset="0.975758" stop-color="#3A3C44"/>
<stop offset="1" stop-color="#3A3D44"/>
</linearGradient>
<linearGradient id="paint34_linear" x1="8.84764" y1="25.3541" x2="8.84763" y2="15.0253" gradientUnits="userSpaceOnUse">
<stop stop-color="#0C0C0D"/>
<stop offset="0.945455" stop-color="#2B2D33"/>
<stop offset="0.975758" stop-color="#4B4E59"/>
<stop offset="1" stop-color="#4B4F59"/>
</linearGradient>
<linearGradient id="paint35_linear" x1="8.84084" y1="25.299" x2="8.84084" y2="15.0291" gradientUnits="userSpaceOnUse">
<stop stop-color="#101011"/>
<stop offset="0.945455" stop-color="#32353C"/>
<stop offset="0.975758" stop-color="#5C616E"/>
<stop offset="1" stop-color="#5D616F"/>
</linearGradient>
<linearGradient id="paint36_linear" x1="8.84382" y1="25.2418" x2="8.84382" y2="15.0323" gradientUnits="userSpaceOnUse">
<stop stop-color="#141416"/>
<stop offset="0.945455" stop-color="#393C44"/>
<stop offset="0.975758" stop-color="#6E7384"/>
<stop offset="1" stop-color="#6E7384"/>
</linearGradient>
<linearGradient id="paint37_linear" x1="8.84679" y1="25.1845" x2="8.84679" y2="15.0369" gradientUnits="userSpaceOnUse">
<stop stop-color="#18181A"/>
<stop offset="0.945455" stop-color="#40434D"/>
<stop offset="0.975758" stop-color="#7F8599"/>
</linearGradient>
<linearGradient id="paint38_linear" x1="9.67112" y1="18.5147" x2="9.39987" y2="18.8042" gradientUnits="userSpaceOnUse">
<stop stop-color="white"/>
<stop offset="1" stop-color="white" stop-opacity="0"/>
</linearGradient>
<linearGradient id="paint39_linear" x1="5.31699" y1="15.959" x2="5.31699" y2="17.9317" gradientUnits="userSpaceOnUse">
<stop stop-color="#626366"/>
<stop offset="1" stop-color="#949699"/>
</linearGradient>
<radialGradient id="paint40_radial" cx="0" cy="0" r="1" gradientUnits="userSpaceOnUse" gradientTransform="translate(5.27529 16.2658) scale(2.31007 0.87195)">
<stop offset="0.236364" stop-color="#F5F6F7"/>
<stop offset="0.8" stop-color="#4B4B4D"/>
<stop offset="0.909091" stop-color="#4B4B4D"/>
<stop offset="1" stop-color="#717173"/>
</radialGradient>
<linearGradient id="paint41_linear" x1="5.31699" y1="22.58" x2="5.31699" y2="24.5533" gradientUnits="userSpaceOnUse">
<stop stop-color="#626366"/>
<stop offset="1" stop-color="#949699"/>
</linearGradient>
<radialGradient id="paint42_radial" cx="0" cy="0" r="1" gradientUnits="userSpaceOnUse" gradientTransform="translate(5.27529 22.8868) scale(2.30905 0.871564)">
<stop offset="0.236364" stop-color="#F5F6F7"/>
<stop offset="0.8" stop-color="#4B4B4D"/>
<stop offset="0.909091" stop-color="#3E3E40"/>
<stop offset="1" stop-color="#646466"/>
</radialGradient>
<linearGradient id="paint43_linear" x1="12.3772" y1="22.58" x2="12.3772" y2="24.5533" gradientUnits="userSpaceOnUse">
<stop stop-color="#626366"/>
<stop offset="1" stop-color="#949699"/>
</linearGradient>
<radialGradient id="paint44_radial" cx="0" cy="0" r="1" gradientUnits="userSpaceOnUse" gradientTransform="translate(12.3459 22.8868) scale(2.30929 0.871658)">
<stop offset="0.236364" stop-color="#F5F6F7"/>
<stop offset="0.8" stop-color="#4B4B4D"/>
<stop offset="0.909091" stop-color="#3E3E40"/>
<stop offset="1" stop-color="#646466"/>
</radialGradient>
<linearGradient id="paint45_linear" x1="25.847" y1="27.1182" x2="25.847" y2="28.3441" gradientUnits="userSpaceOnUse">
<stop stop-color="#232122"/>
<stop offset="1" stop-color="#232122" stop-opacity="0"/>
</linearGradient>
</defs>
</svg>
