<svg xmlns="http://www.w3.org/2000/svg" viewBox="0 0 64 64"><defs><style>.cls-1{fill:#ccc;}.cls-2{fill:#e6e6e6;}.cls-3{fill:#e4202b;}.cls-4{fill:#e9caa0;}.cls-5{fill:#b17133;}.cls-6{fill:#0097ce;}</style></defs><g id="Layer_30" data-name="Layer 30"><path class="cls-1" d="M52.55,4.39H49.16a.61.61,0,0,0-.56.81c.1,0,0,3.63,0,3.74a.59.59,0,0,0,.6.65h3.29a2.41,2.41,0,0,1,2.4,2.4V53.08a2.41,2.41,0,0,1-2.4,2.4H11.45a2.41,2.41,0,0,1-2.4-2.4V12a2.41,2.41,0,0,1,2.4-2.4h3.31a.6.6,0,0,0,.6-.6c0-.07,0-3.85.05-3.79a.61.61,0,0,0-.56-.81h-3.4A7.61,7.61,0,0,0,3.85,12V53.08a7.61,7.61,0,0,0,7.6,7.6h41.1a7.61,7.61,0,0,0,7.6-7.6V12A7.61,7.61,0,0,0,52.55,4.39Z"/><rect class="cls-2" x="7.85" y="8.39" width="48.29" height="48.29" rx="3.6"/><path class="cls-3" d="M52.54,8.39H11.45A3.61,3.61,0,0,0,7.85,12v4.94a.6.6,0,0,0,.6.6H55.54a.6.6,0,0,0,.6-.6V12A3.61,3.61,0,0,0,52.54,8.39Z"/><path class="cls-2" d="M16.9,3.32A2.29,2.29,0,0,0,14.16,5.5v7c0,2.95,4.91,2.95,4.93,0v-7A2.19,2.19,0,0,0,16.9,3.32Z"/><path class="cls-2" d="M32.28,3.32A2.29,2.29,0,0,0,29.54,5.5v7c0,2.95,4.91,2.95,4.93,0v-7A2.19,2.19,0,0,0,32.28,3.32Z"/><path class="cls-2" d="M47.66,3.32A2.3,2.3,0,0,0,44.91,5.5v7c0,2.95,4.92,2.95,4.94,0v-7A2.19,2.19,0,0,0,47.66,3.32Z"/><path class="cls-4" d="M31.25,34.65a2.22,2.22,0,0,0-1-.57V23.5a2,2,0,0,0-3.94-.56L23.18,36.21c-.64,2.43-3,5.25-5.42,5.44a8.32,8.32,0,0,0-1.24.09.66.66,0,0,0-.36.58v8.19a1.1,1.1,0,0,0,.06.26.64.64,0,0,0,.62.34l7.75-1A8.18,8.18,0,0,0,31.89,42v-5.8A2.22,2.22,0,0,0,31.25,34.65Z"/><path class="cls-4" d="M47.82,42.2a.59.59,0,0,0-.55-.51c-3,.29-5.67-2.63-6.45-5.47L37.7,22.93a2,2,0,0,0-3.93.57V34.08a2.2,2.2,0,0,0-1.66,2.13V42A8.19,8.19,0,0,0,39.4,50.1l7.77,1a.6.6,0,0,0,.64-.43.51.51,0,0,0,0-.17V42.32A.23.23,0,0,0,47.82,42.2Z"/><path class="cls-5" d="M15.63,40.37A1.73,1.73,0,0,0,13.9,42.1v8.77a1.73,1.73,0,0,0,3.46,0V42.1A1.73,1.73,0,0,0,15.63,40.37Z"/><path class="cls-5" d="M48.37,40.37a1.73,1.73,0,0,0-1.73,1.73v8.77a1.73,1.73,0,0,0,3.46,0V42.1A1.72,1.72,0,0,0,48.37,40.37Z"/><path class="cls-6" d="M14.65,21.12a.6.6,0,0,1-.6-.6V19a.6.6,0,0,1,1.2,0v1.5A.6.6,0,0,1,14.65,21.12Z"/><path class="cls-6" d="M14.65,26.83a.6.6,0,0,1-.6-.6v-1.5a.6.6,0,1,1,1.2,0v1.5A.6.6,0,0,1,14.65,26.83Z"/><path class="cls-6" d="M16.13,21.73a.61.61,0,0,1-.42-1l1.05-1.05a.59.59,0,0,1,.85,0,.61.61,0,0,1,0,.85l-1.06,1.05A.58.58,0,0,1,16.13,21.73Z"/><path class="cls-6" d="M18.23,23.2H16.74a.6.6,0,0,1-.6-.6.6.6,0,0,1,.6-.6h1.49A.6.6,0,0,1,18.23,23.2Z"/><path class="cls-6" d="M17.18,25.73a.58.58,0,0,1-.42-.17L15.71,24.5a.59.59,0,0,1,.84-.84l1.06,1.05A.6.6,0,0,1,17.18,25.73Z"/><path class="cls-6" d="M12.12,25.73a.6.6,0,0,1-.42-1l1.05-1.05a.59.59,0,0,1,.85,0,.58.58,0,0,1,0,.84l-1,1.06A.59.59,0,0,1,12.12,25.73Z"/><path class="cls-6" d="M12.57,23.2h-1.5a.6.6,0,0,1-.6-.6.6.6,0,0,1,.6-.6h1.5A.6.6,0,0,1,12.57,23.2Z"/><path class="cls-6" d="M13.18,21.73a.6.6,0,0,1-.43-.18L11.7,20.5a.6.6,0,0,1,.85-.85l1,1.05A.61.61,0,0,1,13.18,21.73Z"/><path class="cls-6" d="M47.56,24a.6.6,0,0,1-.6-.6V21.86a.6.6,0,0,1,.6-.6.6.6,0,0,1,.6.6v1.49A.6.6,0,0,1,47.56,24Z"/><path class="cls-6" d="M47.56,29.66a.6.6,0,0,1-.6-.6V27.57a.6.6,0,0,1,.6-.6.6.6,0,0,1,.6.6v1.49A.6.6,0,0,1,47.56,29.66Z"/><path class="cls-6" d="M49,24.56a.6.6,0,0,1-.42-1l1.05-1.06a.6.6,0,0,1,.85.85l-1.06,1.05A.58.58,0,0,1,49,24.56Z"/><path class="cls-6" d="M51.14,26H49.65a.6.6,0,0,1-.6-.6.6.6,0,0,1,.6-.6h1.49A.6.6,0,0,1,51.14,26Z"/><path class="cls-6" d="M50.1,28.57a.6.6,0,0,1-.43-.18l-1.05-1.05a.59.59,0,0,1,0-.85.58.58,0,0,1,.84,0l1.06,1.05A.61.61,0,0,1,50.1,28.57Z"/><path class="cls-6" d="M45,28.57a.61.61,0,0,1-.42-1l1.06-1.05a.58.58,0,0,1,.84,0,.59.59,0,0,1,0,.85l-1,1.05A.6.6,0,0,1,45,28.57Z"/><path class="cls-6" d="M45.48,26H44a.6.6,0,0,1-.6-.6.59.59,0,0,1,.6-.6h1.49A.6.6,0,0,1,45.48,26Z"/><path class="cls-6" d="M46.09,24.56a.58.58,0,0,1-.42-.18l-1.06-1.05a.6.6,0,1,1,.85-.85l1,1.06A.6.6,0,0,1,46.09,24.56Z"/><path class="cls-6" d="M31.92,49.81a.6.6,0,0,1-.6-.6v-1.4a.6.6,0,0,1,1.2,0v1.4A.6.6,0,0,1,31.92,49.81Z"/><path class="cls-6" d="M31.92,55.21a.6.6,0,0,1-.6-.6V53.2a.6.6,0,0,1,1.2,0v1.41A.6.6,0,0,1,31.92,55.21Z"/><path class="cls-6" d="M33.31,50.39a.6.6,0,0,1-.42-1c.57-.47,1.19-1.61,1.85-1s-.53,1.28-1,1.85A.63.63,0,0,1,33.31,50.39Z"/><path class="cls-6" d="M35.3,51.79H33.89a.6.6,0,0,1,0-1.2H35.3A.6.6,0,0,1,35.3,51.79Z"/><path class="cls-6" d="M34.31,54.18a.58.58,0,0,1-.42-.18c-.47-.57-1.61-1.19-1-1.84s1.27.52,1.85,1A.61.61,0,0,1,34.31,54.18Z"/><path class="cls-6" d="M29.53,54.18a.61.61,0,0,1-.42-1c.57-.47,1.19-1.61,1.84-1s-.53,1.27-1,1.84A.58.58,0,0,1,29.53,54.18Z"/><path class="cls-6" d="M30,51.79H28.54a.6.6,0,1,1,0-1.2H30A.6.6,0,0,1,30,51.79Z"/><path class="cls-6" d="M30.53,50.39a.63.63,0,0,1-.43-.17c-.47-.57-1.61-1.2-1-1.85s1.28.53,1.85,1A.6.6,0,0,1,30.53,50.39Z"/><path d="M39.4,50.1l7.26.94a1.73,1.73,0,0,0,3.44-.17V42.1a1.73,1.73,0,0,0-3.4-.43c-2.68.08-5.17-2.87-5.88-5.45L37.7,22.93a2,2,0,0,0-3.93.57V34.08a2.2,2.2,0,0,0-1.66,2.13V42A8.19,8.19,0,0,0,39.4,50.1Zm8.44-8a.53.53,0,0,1,1.06,0v8.77a.53.53,0,0,1-1.06,0V42.1ZM33.31,36.21a1,1,0,0,1,2,0v3.64a.6.6,0,0,0,1.19,0V36.21A2.16,2.16,0,0,0,35,34.11V23.5a.81.81,0,0,1,1.58-.28l3.12,13.29c.83,3.08,3.73,6.4,7,6.36v7l-7.1-.92A7,7,0,0,1,33.31,42Z"/><path d="M15.63,52.6A1.72,1.72,0,0,0,17.34,51l7.25-.94A8.18,8.18,0,0,0,31.89,42v-5.8a2.2,2.2,0,0,0-1.65-2.13V23.5a2,2,0,0,0-3.94-.56L23.18,36.21c-.7,2.59-3.19,5.53-5.88,5.46a1.73,1.73,0,0,0-3.4.43v8.77A1.74,1.74,0,0,0,15.63,52.6Zm2.18-9.75c3-.22,5.76-3.41,6.54-6.36l3.11-13.26A.8.8,0,0,1,29,23.5V34.1a2.18,2.18,0,0,0-1.58,2.11v3.64a.6.6,0,0,0,1.2,0V36.21a1,1,0,0,1,1-1,1,1,0,0,1,1,1V42a7,7,0,0,1-6.25,6.9l-7.09.92v-7ZM15.1,42.1a.54.54,0,1,1,1.06.19v8.22c0,.39,0,.88-.53.89a.53.53,0,0,1-.53-.53Z"/><path d="M52.54,4.39h-3A2.4,2.4,0,0,0,47.1,3.32,2.18,2.18,0,0,0,44.92,5.5V8.39H34.47V5.5a2.3,2.3,0,0,0-2.75-2.18A2.19,2.19,0,0,0,29.54,5.5V8.39H19.09V5.5A2.19,2.19,0,0,0,16.9,3.32a2.44,2.44,0,0,0-2.43,1.07h-3A7.6,7.6,0,0,0,3.86,12V53.08a7.6,7.6,0,0,0,7.6,7.6H52.54a7.6,7.6,0,0,0,7.6-7.6V12A7.6,7.6,0,0,0,52.54,4.39ZM46.11,5.5c0-.88.81-1,1.55-1a1,1,0,0,1,1,1v7c0,.89-.81,1-1.55,1a1,1,0,0,1-1-1Zm-15.37,0c0-.89.8-1,1.54-1a1,1,0,0,1,1,1V9s0,0,0,0v3.48a1,1,0,0,1-1,1c-.74.06-1.51-.09-1.54-1Zm-1.2,4.09v2.89a2.3,2.3,0,0,0,2.74,2.19,2.19,2.19,0,0,0,2.19-2.19V9.59H44.92v2.89a2.3,2.3,0,0,0,2.74,2.19,2.18,2.18,0,0,0,2.18-2.19V9.59h2.7a2.4,2.4,0,0,1,2.4,2.4v4.34H9.05V12a2.41,2.41,0,0,1,2.4-2.4h2.71v2.89a2.3,2.3,0,0,0,2.74,2.19,2.19,2.19,0,0,0,2.19-2.19V9.59ZM9.05,17.53H54.94V53.08a2.4,2.4,0,0,1-2.4,2.4H11.45a2.41,2.41,0,0,1-2.4-2.4Zm6.31-12c0-.89.8-1,1.54-1a1,1,0,0,1,1,1V9a0,0,0,0,0,0,0v3.47a1,1,0,0,1-1,1c-.74.06-1.51-.1-1.54-1ZM59,53.08a6.41,6.41,0,0,1-6.41,6.4H11.46a6.41,6.41,0,0,1-6.41-6.4V12a6.41,6.41,0,0,1,6.41-6.4h2.7v2.8H11.45A3.6,3.6,0,0,0,7.85,12V53.08a3.61,3.61,0,0,0,3.6,3.6H52.54a3.6,3.6,0,0,0,3.6-3.6V16.94s0,0,0,0V12a3.6,3.6,0,0,0-3.6-3.6h-2.7V5.59h2.7A6.41,6.41,0,0,1,59,12Z"/><path d="M14.65,21.12a.6.6,0,0,0,.6-.6V19a.6.6,0,0,0-1.2,0v1.5A.6.6,0,0,0,14.65,21.12Z"/><path d="M14.65,26.83a.6.6,0,0,0,.6-.6v-1.5a.6.6,0,1,0-1.2,0v1.5A.6.6,0,0,0,14.65,26.83Z"/><path d="M16.13,21.73a.58.58,0,0,0,.42-.18l1.06-1.05a.61.61,0,0,0,0-.85.59.59,0,0,0-.85,0L15.71,20.7A.61.61,0,0,0,16.13,21.73Z"/><path d="M16.14,22.6a.6.6,0,0,0,.6.6h1.49a.6.6,0,0,0,.6-.6.6.6,0,0,0-.6-.6H16.74A.6.6,0,0,0,16.14,22.6Z"/><path d="M16.76,25.56a.6.6,0,0,0,.85-.85l-1.06-1.05a.59.59,0,0,0-.84.84Z"/><path d="M12.75,23.66,11.7,24.71a.6.6,0,0,0,.42,1c.37.08,1.22-1,1.48-1.23C14.16,24,13.3,23.1,12.75,23.66Z"/><path d="M11.07,23.2h1.5a.6.6,0,0,0,.6-.6.6.6,0,0,0-.6-.6h-1.5A.6.6,0,0,0,11.07,23.2Z"/><path d="M12.75,21.55a.6.6,0,0,0,.85-.85l-1-1.05c-.54-.56-1.41.3-.85.85Z"/><path d="M47.56,24a.6.6,0,0,0,.6-.6V21.86a.6.6,0,0,0-.6-.6.6.6,0,0,0-.6.6v1.49A.6.6,0,0,0,47.56,24Z"/><path d="M47.56,29.66a.6.6,0,0,0,.6-.6V27.57a.6.6,0,0,0-.6-.6.6.6,0,0,0-.6.6v1.49A.6.6,0,0,0,47.56,29.66Z"/><path d="M49,24.56a.58.58,0,0,0,.42-.18l1.06-1.05a.6.6,0,0,0-.85-.85l-1.05,1.06A.6.6,0,0,0,49,24.56Z"/><path d="M49.05,25.44a.6.6,0,0,0,.6.6h1.49a.6.6,0,0,0,.6-.6.59.59,0,0,0-.6-.6H49.65A.6.6,0,0,0,49.05,25.44Z"/><path d="M49.67,28.39a.6.6,0,0,0,.85-.85l-1.06-1.05c-.54-.56-1.4.3-.84.85Z"/><path d="M45.67,26.49l-1.06,1.05a.61.61,0,0,0,.42,1c.37.07,1.22-1,1.48-1.23C47.07,26.8,46.21,25.93,45.67,26.49Z"/><path d="M44,26h1.49a.6.6,0,0,0,.6-.6.6.6,0,0,0-.6-.6H44A.6.6,0,0,0,44,26Z"/><path d="M45.67,24.38a.59.59,0,0,0,.84-.84l-1-1.06c-.54-.56-1.41.31-.85.85Z"/><path d="M31.32,47.81v1.4a.6.6,0,0,0,1.2,0v-1.4A.6.6,0,0,0,31.32,47.81Z"/><path d="M31.92,52.6a.6.6,0,0,0-.6.6v1.41a.6.6,0,0,0,1.2,0V53.2A.6.6,0,0,0,31.92,52.6Z"/><path d="M33.31,50.39a.63.63,0,0,0,.43-.17c.47-.57,1.61-1.2,1-1.85s-1.28.53-1.85,1A.6.6,0,0,0,33.31,50.39Z"/><path d="M35.3,50.59H33.89a.6.6,0,0,0,0,1.2H35.3A.6.6,0,0,0,35.3,50.59Z"/><path d="M33.74,52.16c-.54-.56-1.41.3-.85.85.27.2,1,1.23,1.42,1.17a.61.61,0,0,0,.43-1Z"/><path d="M30.1,52.16l-1,1a.61.61,0,0,0,.42,1c.38.06,1.16-1,1.42-1.17C31.51,52.46,30.64,51.6,30.1,52.16Z"/><path d="M30.55,51.19a.6.6,0,0,0-.6-.6H28.54a.6.6,0,1,0,0,1.2H30A.6.6,0,0,0,30.55,51.19Z"/><path d="M30,48.37c-.54-.56-1.4.31-.84.85.26.2,1,1.23,1.42,1.17a.6.6,0,0,0,.42-1Z"/></g></svg>