<svg xmlns="http://www.w3.org/2000/svg" enable-background="new 0 0 66 66" viewBox="0 0 66 66"><rect width="27.8" height="34.9" x="34.7" y="1.8" fill="#E6E6E8"/><rect width="13.9" height="34.9" x="34.7" y="1.8" fill="#D4D8DB"/><rect width="19.7" height="3.3" x="38.8" y="7" fill="#E8664A"/><rect width="19.7" height="3.3" x="38.8" y="13.9" fill="#1E87B7"/><rect width="19.7" height="3.3" x="38.8" y="20.8" fill="#1E87B7"/><rect width="19.7" height="3.3" x="38.8" y="27.8" fill="#1E87B7"/><g><rect width="9.9" height="3.3" x="48.6" y="7" fill="#D95239"/><rect width="9.9" height="3.3" x="48.6" y="13.9" fill="#1576AC"/><rect width="9.9" height="3.3" x="48.6" y="20.8" fill="#1576AC"/><rect width="9.9" height="3.3" x="48.6" y="27.8" fill="#1576AC"/></g><g><rect width="5.8" height="3" x="22.6" y="39.5" fill="#D5B79F"/><rect width="2.9" height="3" x="22.6" y="39.5" fill="#C6A28A"/><rect width="4.5" height="7.1" x="23.3" y="12.2" fill="#465C6A"/><rect width="2.3" height="7.1" x="25.6" y="12.2" fill="#3B4C56"/><path fill="#D4D8DB" d="M21.9,23v7.3c-7.5,0-12.3,3.6-12.3,11c0,7.5,4.8,11,12.3,11v7.2c-10.1,0-18.3-8.2-18.3-18.3
				C3.7,31.2,11.9,23,21.9,23z"/><path fill="#B5BABE" d="M9.7,41.3c0,7.5,4.8,11,12.3,11v3.9C13.7,56.2,7,49.5,7,41.3c0-8.2,6.7-14.9,14.9-14.9v3.9
				C14.5,30.2,9.7,33.8,9.7,41.3z"/><path fill="#465C6A" d="M40.4,58H3.8c-1.1,0-2,0.9-2,2v4.2h40.6V60C42.4,58.9,41.5,58,40.4,58z"/><path fill="#3B4C56" d="M3.8,58c-1.1,0-2,0.9-2,2v4.2h20.3V58H3.8z"/><rect width="7.8" height="20.9" x="21.6" y="18.4" fill="#3B4C56"/><rect width="4" height="20.9" x="21.6" y="18.4" fill="#465C6A"/><path fill="#465C6A" d="M30.3,18.4h-9.8c-0.1,0-0.2,0.1-0.2,0.2v1.8c0,0.1,0.1,0.2,0.2,0.2h9.8c0.1,0,0.2-0.1,0.2-0.2v-1.8
				C30.5,18.6,30.4,18.4,30.3,18.4z"/><path fill="#3B4C56" d="M20.5,18.4c-0.1,0-0.2,0.1-0.2,0.2v1.8c0,0.1,0.1,0.2,0.2,0.2h5.1v-2.3H20.5z"/><path fill="#465C6A" d="M30.3,37.8h-9.8c-0.1,0-0.2,0.1-0.2,0.2v1.8c0,0.1,0.1,0.2,0.2,0.2h9.8c0.1,0,0.2-0.1,0.2-0.2V38
				C30.5,37.9,30.4,37.8,30.3,37.8z"/><path fill="#3B4C56" d="M20.5,37.8c-0.1,0-0.2,0.1-0.2,0.2v1.8c0,0.1,0.1,0.2,0.2,0.2h5.1v-2.3H20.5z"/><path fill="#465C6A" d="M34.7,47.9H20.2c-0.5,0-0.9,0.4-0.9,0.9v2.7c0,0.5,0.4,0.9,0.9,0.9h14.5c0.5,0,0.9-0.4,0.9-0.9v-2.7
			C35.6,48.3,35.2,47.9,34.7,47.9z"/><path fill="#3B4C56" d="M34.7,47.9h-7.3v4.4h7.3c0.5,0,0.9-0.4,0.9-0.9v-2.7C35.6,48.3,35.2,47.9,34.7,47.9z"/></g><g><path fill="#D4D8DB" d="M36,41.5v16.8c0,3.2,2.6,5.8,5.8,5.8c3.2,0,5.8-2.6,5.8-5.8V41.5H36z"/><path fill="#E8664A" d="M38,48.1v10.3c0,2.1,1.7,3.8,3.8,3.8s3.8-1.7,3.8-3.8V48.1H38z"/><path fill="#465C6A" d="M41.7,41.5v22.6c0,0,0.1,0,0.1,0c3.2,0,5.8-2.6,5.8-5.8V41.5H41.7z" opacity=".15"/><path fill="#E6E6E8" d="M48.4,40.6H35.2c-0.3,0-0.5,0.2-0.5,0.5v2c0,0.3,0.2,0.5,0.5,0.5h13.2c0.3,0,0.5-0.2,0.5-0.5v-2
				C48.9,40.8,48.7,40.6,48.4,40.6z"/><g><path fill="#D4D8DB" d="M51.4,41.5v16.8c0,3.2,2.6,5.8,5.8,5.8c3.2,0,5.8-2.6,5.8-5.8V41.5H51.4z"/><path fill="#6FAC43" d="M53.4,48.1v10.3c0,2.1,1.7,3.8,3.8,3.8s3.8-1.7,3.8-3.8V48.1H53.4z"/><path fill="#465C6A" d="M57.1,41.5v22.6c0,0,0.1,0,0.1,0c3.2,0,5.8-2.6,5.8-5.8V41.5H57.1z" opacity=".15"/><path fill="#E6E6E8" d="M63.8,40.6H50.6c-0.3,0-0.5,0.2-0.5,0.5v2c0,0.3,0.2,0.5,0.5,0.5h13.2c0.3,0,0.5-0.2,0.5-0.5v-2
				C64.2,40.8,64,40.6,63.8,40.6z"/></g></g></svg>