<svg xmlns="http://www.w3.org/2000/svg" id="Layer_1" viewBox="0 0 32 32"><path fill="#f04c4d" d="M11.8 7.297l1.661 4.398.094.014a8.43 8.43 0 0 1 1.121-.624c.027-.069.064-.132.076-.209l.739-4.945a1 1 0 0 0-.841-1.137l-2.967-.444a1 1 0 0 0-1.137.841l-.239 1.6.205-.077a1 1 0 0 1 1.288.583z"/><path fill="#ffcc5c" d="M11.361 13.876a8.332 8.332 0 0 1 2.125-2.116L11.8 7.297a1 1 0 0 0-1.289-.582l-2.807 1.06a.999.999 0 0 0-.581 1.288L8.89 13.74a1 1 0 0 0 1.289.582l1.182-.446z"/><path fill="#e13340" d="M12.614 6.733a1.671 1.671 0 0 0-2.152-.971l-.002.001-.154 1.029.205-.077a1 1 0 0 1 1.289.582l1.661 4.398.094.014c.246-.165.514-.297.779-.433l-1.72-4.543z"/><path fill="none" stroke="#d5e5f1" stroke-linecap="round" stroke-linejoin="round" d="M5.844 26.75h1M18.344 26.75h-9.5"/><path id="XMLID_1_" fill="#d5e5f1" d="M26.844 18.769c0 4.675-3.825 8.5-8.5 8.5a8.47 8.47 0 0 1-8.5-8.5c0-4.76 3.74-8.5 8.5-8.5a8.47 8.47 0 0 1 8.5 8.5z"/><path fill="#b0c4da" d="M21.465 10.862a8.448 8.448 0 0 1 2.379 5.906c0 4.675-3.825 8.5-8.5 8.5a8.54 8.54 0 0 1-3.121-.592 8.45 8.45 0 0 0 6.121 2.592c4.675 0 8.5-3.825 8.5-8.5a8.454 8.454 0 0 0-5.379-7.906z"/><path id="XMLID_6_" fill="#2b2a2f" d="M16.137 18.77a.519.519 0 0 1-.145-.021l-4-1.212a.5.5 0 1 1 .291-.957l4 1.212a.5.5 0 0 1-.146.978z"/><path id="XMLID_5_" fill="#3c3b42" d="M18.272 17.019a.5.5 0 0 1-.5-.486l-.111-4a.501.501 0 0 1 .486-.514c.25-.01.505.21.514.486l.111 4a.501.501 0 0 1-.486.514h-.014z"/><path id="XMLID_4_" fill="#3c3b42" d="M20.424 18.934a.5.5 0 0 1-.188-.963l4-1.625a.5.5 0 0 1 .376.926l-4 1.625a.496.496 0 0 1-.188.037z"/><path id="XMLID_3_" fill="#3c3b42" d="M21.64 24.866a.5.5 0 0 1-.441-.263l-2-3.714a.5.5 0 1 1 .881-.473l2 3.714a.5.5 0 0 1-.44.736z"/><path id="XMLID_2_" fill="#3c3b42" d="M14.709 24.131a.501.501 0 0 1-.39-.812l2-2.5a.503.503 0 0 1 .703-.078c.215.173.25.487.078.703l-2 2.5a.503.503 0 0 1-.391.187z"/><path fill="none" stroke="#d5e5f1" stroke-linecap="round" stroke-linejoin="round" d="M6.844 23.75h2M5.784 5.672l.579.816M4.156 8.265l.986.167"/><path id="XMLID_14_" fill="#3c3b42" d="M20.465 22.067h-4.348l-1.273-4.136 3.5-2.546 3.5 2.546z"/><path fill="#3c3b42" d="M11.32 13.932a8.533 8.533 0 0 0-1.475 4.836c0 .237.016.469.035.701l2.771-2.25-1.331-3.287z"/><path fill="#2b2a2f" d="M23.869 17.074l2.944 2.3c.014-.201.031-.401.031-.606a8.461 8.461 0 0 0-1.734-5.151l-1.241 3.457zM19.51 27.178a8.512 8.512 0 0 0 5.612-3.311l-4.011-.391-1.601 3.702z"/><path fill="#3c3b42" d="M16.177 26.984l-1.128-3.667h-3.888a8.437 8.437 0 0 0 5.016 3.667zM18.344 10.269a8.658 8.658 0 0 0-3.079.566l2.933 1.984 2.823-2.117a8.531 8.531 0 0 0-2.677-.433z"/><path fill="#2b2a2f" d="M21.762 23.539l-.414-.768a8.705 8.705 0 0 1-.772.676l.304.564-1.37 3.168a8.39 8.39 0 0 0 2.426-.722l.003-.001c.251-.118.495-.248.731-.389l.005-.003a8.5 8.5 0 0 0 .686-.456l.004-.003a8.61 8.61 0 0 0 .638-.52l.002-.001c.41-.368.784-.775 1.117-1.216l-3.36-.329zM26.732 17.394a8.368 8.368 0 0 0-.253-1.078c-.023-.078-.044-.157-.07-.234a8.325 8.325 0 0 0-.374-.928c-.046-.098-.092-.196-.142-.292a8.456 8.456 0 0 0-.677-1.093c-.035-.048-.076-.09-.112-.138l-.992 2.763-.281.114c.003.087.013.171.013.259 0 .281-.015.558-.042.833l.488-.198 2.523 1.971c.014-.201.031-.401.031-.606a8.76 8.76 0 0 0-.095-1.243c-.006-.042-.01-.087-.017-.13zM15.645 25.253c-.101.004-.199.015-.301.015a8.547 8.547 0 0 1-3.102-.585c.098.102.2.2.303.297.06.056.118.115.18.169.144.127.295.246.447.362.057.044.113.09.172.132.166.121.339.234.514.343.048.03.095.061.144.09.191.113.387.217.587.315l.109.054a8.222 8.222 0 0 0 .735.305c.233.084.47.158.712.222l.031.008-.531-1.727z"/><path fill="#f7b546" d="M11.8 7.297a.986.986 0 0 0-1.063-.619c.019.036.049.062.063.101l.971 2.511a3.001 3.001 0 0 1-1.611 3.838l-1.073.462c-.079.03-.16.03-.241.039l.042.113a1 1 0 0 0 1.289.582l1.183-.447a8.332 8.332 0 0 1 2.125-2.116L11.8 7.297z"/></svg>