<svg xmlns="http://www.w3.org/2000/svg" enable-background="new 0 0 64 64" viewBox="0 0 64 64"><path fill="#cfd3cb" d="M19.19,63.95l-4.74-8.43l-2.17-3.86l-3.73-2.1L0,44.75c4.53-5.77,8.12-6.73,15.51-3.58
			c0.28,0.13,0.58,0.26,0.89,0.4l5.97,5.97c0.15,0.32,0.28,0.63,0.41,0.93C25.92,55.82,24.95,59.43,19.19,63.95z"/><rect width="5.95" height="3.87" x="50.77" y="29.94" fill="#b6bab1" transform="rotate(-45.001 53.748 31.88)"/><path fill="#9a9b9a" d="M57.51,30.86l-2.74-2.74c-0.16-0.16-0.41-0.16-0.57,0l0,0c-0.16,0.16-0.16,0.41,0,0.57l2.74,2.74
						c0.16,0.16,0.41,0.16,0.57,0l0,0C57.66,31.27,57.66,31.02,57.51,30.86z"/><rect width="5.95" height="3.87" x="54.12" y="40.66" fill="#b6bab1" transform="rotate(-45.001 57.094 42.597)"/><path fill="#9a9b9a" d="M60.85,41.57l-2.74-2.74c-0.16-0.16-0.41-0.16-0.57,0l0,0c-0.16,0.16-0.16,0.41,0,0.57l2.74,2.74
						c0.16,0.16,0.41,0.16,0.57,0l0,0C61.01,41.99,61.01,41.73,60.85,41.57z"/><path fill="#cfd3cb" d="M49.6,20.66c0.12,0.12,7.44,20.29,10.83,29.67c1.04,2.86,0.29,6.06-1.9,8.17l-1.2,1.16L38,29.58
					L49.6,20.66z"/><rect width="5.95" height="3.87" x="29.09" y="8.26" fill="#b6bab1" transform="rotate(-45.001 32.067 10.198)"/><path fill="#9a9b9a" d="M33.09,6.44l2.74,2.74c0.16,0.16,0.16,0.41,0,0.57l0,0c-0.16,0.16-0.41,0.16-0.57,0l-2.74-2.74
						c-0.16-0.16-0.16-0.41,0-0.57l0,0C32.68,6.28,32.93,6.28,33.09,6.44z"/><rect width="5.95" height="3.87" x="18.38" y="4.92" fill="#b6bab1" transform="rotate(-45.001 21.35 6.854)"/><path fill="#9a9b9a" d="M22.37,3.1l2.74,2.74c0.16,0.16,0.16,0.41,0,0.57l0,0c-0.16,0.16-0.41,0.16-0.57,0L21.8,3.67
						c-0.16-0.16-0.16-0.41,0-0.57l0,0C21.96,2.94,22.21,2.94,22.37,3.1z"/><path fill="#cfd3cb" d="M43.29,14.34C43.16,14.22,23,6.91,13.61,3.51c-2.86-1.04-6.06-0.29-8.17,1.9l-1.16,1.2l30.08,19.34
					L43.29,14.34z"/><path fill="#e6e6e6" d="M14.29,44.02C35.07,20.69,56.02-5.74,62.92,1.16C69.83,8.07,42.1,30.09,20.07,49.8
		C7.65,61.12,3.01,56.47,14.29,44.02z"/><path fill="#3ab7fc" d="M59.23,4.82c-1.25-0.44-5.49,0.6-5.49,0.6C56,3.35,59.39,3,60.64,2.94c0.27-0.01,0.49,0.2,0.47,0.47
		c-0.06,1.25-0.42,4.64-2.49,6.9C58.62,10.31,59.67,6.07,59.23,4.82z"/></svg>